<?xml version="1.0" encoding="utf-8"?>
<!-- Uploaded to: SVG Repo, www.svgrepo.com, Generator: SVG Repo Mixer Tools -->
<svg width="800px" height="800px" viewBox="0 0 32 32" id="Lager_29" data-name="Lager 29" xmlns="http://www.w3.org/2000/svg">
  <g id="Group_8" data-name="Group 8">
    <path id="Path_33" data-name="Path 33" d="M20.587,14.613,18,17.246V9.98A1.979,1.979,0,0,0,16.02,8h-.04A1.979,1.979,0,0,0,14,9.98v6.963l-.26-.042-2.248-2.227a2.091,2.091,0,0,0-2.657-.293A1.973,1.973,0,0,0,8.58,17.4l6.074,6.016a2.017,2.017,0,0,0,2.833,0l5.934-6a1.97,1.97,0,0,0,0-2.806A2.016,2.016,0,0,0,20.587,14.613Z" fill="#040405"/>
    <path id="Path_34" data-name="Path 34" d="M16,0A16,16,0,1,0,32,16,16,16,0,0,0,16,0Zm0,28A12,12,0,1,1,28,16,12.013,12.013,0,0,1,16,28Z" fill="#040405"/>
  </g>
</svg>