<?xml version="1.0" encoding="utf-8"?>

<!-- Uploaded to: SVG Repo, www.svgrepo.com, Generator: SVG Repo Mixer Tools -->
<svg version="1.1" id="Icons" xmlns="http://www.w3.org/2000/svg" xmlns:xlink="http://www.w3.org/1999/xlink" 
	 viewBox="0 0 32 32" xml:space="preserve">
<style type="text/css">
	.st0{fill:none;stroke:#000000;stroke-width:2;stroke-linecap:round;stroke-linejoin:round;stroke-miterlimit:10;}
	.st1{fill:none;stroke:#000000;stroke-width:2;stroke-linecap:round;stroke-linejoin:round;}
	.st2{fill:none;stroke:#000000;stroke-width:2;stroke-linecap:round;stroke-linejoin:round;stroke-dasharray:5.2066,0;}
</style>
<path class="st0" d="M26,27H6c-1.1,0-2-0.9-2-2V12c0-1.1,0.9-2,2-2h20c1.1,0,2,0.9,2,2v13C28,26.1,27.1,27,26,27z"/>
<path class="st0" d="M22.6,18H9.4c-3,0-5.4-2.4-5.4-5.4V12c0-1.1,0.9-2,2-2h20c1.1,0,2,0.9,2,2v0.6C28,15.6,25.6,18,22.6,18z"/>
<line class="st0" x1="10" y1="20" x2="10" y2="18"/>
<line class="st0" x1="22" y1="20" x2="22" y2="18"/>
<path class="st0" d="M9.3,10c0.9-2.9,3.5-5,6.7-5c3.2,0,5.8,2.1,6.7,5"/>
</svg>